<svg version="1" xmlns="http://www.w3.org/2000/svg" width="1365.333" height="1365.333" viewBox="0 0 1024.000000 1024.000000"><path d="M485.8.4c-.1.2-5 .6-10.8 1-5.8.3-11.6.8-13 1.1-1.4.2-5.2.7-8.5 1-11.9 1.1-31.5 4.1-44.5 7-4.1.9-8.6 1.8-10 2.1-9 1.7-36.1 9.4-50 14.1-53.6 18-99.3 42.2-145.5 76.9-8.2 6.2-16.1 12.3-17.5 13.6-1.4 1.3-3.8 3.4-5.5 4.6-5.1 4-21.4 19.2-32.4 30.2-29.2 29.4-53.7 61.2-77.8 100.7-14.2 23.5-32 62.1-42.3 91.8-6.9 20.2-14 45.8-17.4 63.5-.2 1.4-.9 4.7-1.5 7.5-.6 2.7-1.3 6.6-1.6 8.5-1.2 7.7-3.4 23.8-4 28.5-.3 2.7-.8 6.4-1 8.1-2.6 18.9-2.6 85.7 0 101.5.2 1.3.6 5.1 1 8.4.3 3.3.8 7.6 1 9.5 1.1 7.5 2.7 17.6 3.1 20 .3 1.4.7 3.8.9 5.5.6 3.9 1.3 7.3 1.9 9.3.3.9.8 3.3 1.1 5.2.3 1.9 2 8.9 3.6 15.5 1.7 6.6 3.2 12.7 3.4 13.5.8 3.4 6.6 22.1 9.4 30 17.9 51.4 42.6 97.7 75.7 141.5 6.2 8.2 12.5 16.3 13.9 18 1.4 1.6 3.6 4.1 4.7 5.5 27.2 32.4 67 67.9 103.8 92.7 36.8 24.7 82.5 47.3 121.9 60.3 20.6 6.8 32.8 10.3 40 11.7 1.4.2 2.8.6 3.1.8.5.3 12.1 2.8 23.1 5 5.6 1.1 25.7 4.5 29.9 5 28.9 3.5 36.3 3.9 67.5 3.9 24.5.1 40.7-.5 51-1.9 1.7-.2 5.9-.7 9.5-1 3.6-.4 7.4-.9 8.5-1.1 1.1-.1 4-.6 6.5-.9 8.1-1.1 25.7-4.4 37.7-7.1 6.5-1.4 12.4-2.7 13.3-2.9.8-.2 7.8-2.1 15.5-4.4 63.8-18.5 121.5-48 173.2-88.4 13.5-10.5 14.3-11.2 27.2-22.8 18.6-16.7 43.1-42.2 53.3-55.4 1.2-1.7 2.8-3.6 3.5-4.3 2.6-2.7 21.2-27.9 27-36.7 19-28.4 36.8-62.4 50-95 11.9-29.6 25-76.1 28.9-102.5.3-1.9.9-6 1.4-9 1.2-7.1 1.9-12.5 3.5-27.5 2.7-25.1 2.7-85 .1-100.5-.3-1.4-.8-5.4-1.1-9-1.2-12.2-1.5-14.4-2-16-.2-.8-.7-3.5-1-6-.3-2.5-.8-5.6-1-7-1-5.1-1.5-7.6-2.5-13-1.6-8.6-1.6-8.7-5.4-23.8-6.9-27.5-14.4-49.5-27.7-81.2-3-7.2-21.7-44-25.9-51-25.2-41.9-50.2-74.1-82.1-106-11-11-25.6-24.3-33.2-30.3-1.5-1.2-3.9-3.2-5.2-4.4-1.4-1.2-8.4-6.6-15.7-12.1C755 54.5 684.6 23.6 605.5 8.5c-3.3-.6-18.5-3-25.5-4-2.5-.3-5.6-.8-7-1-1.4-.2-6.1-.7-10.5-1.1-4.4-.3-9.8-.8-12-1.1-4.8-.4-64.2-1.3-64.7-.9zM602 69.3c1.4.3 5.4.8 9 1.1 13.3 1.3 26.3 3.2 40.5 6.1 3.9.8 8.5 1.7 10.4 2 1.9.3 3.7.8 4.1 1 .4.2 2 .6 3.6.9 13.3 2.4 55 16 71.4 23.3 24.9 11.1 49.8 24.5 70.5 38.1 10.5 6.9 36.4 25.8 38.5 28.1.3.4 3.4 3.1 7 6.1 19.5 16.4 43.4 41.3 61.3 64 10.9 13.7 35.7 50.9 35.7 53.4 0 .4.8 2 1.9 3.4 4 5.7 23.4 46.2 24.6 51.2.2.8 1.2 3.6 2.3 6.1 2.3 5.4 9.6 26.9 11.9 34.9 1.5 5.6 3 11.3 3.7 14 1 3.6 5.2 23.3 6.1 28 5.2 28.8 6.9 48.7 7 79.5 0 18.4-.9 40.2-1.9 45-.2 1.1-.7 4.9-1 8.5-.4 3.6-.8 7.5-1 8.5-.2 1.1-.7 4-1 6.5-4.8 31.7-15.7 70.2-28.3 100.5-6.2 14.8-19.1 40.9-25.2 50.9-2.3 3.8-4.1 7-4.1 7.1 0 .2-2.2 3.8-4.9 8l-4.9 7.6-4.8-8.3c-2.7-4.5-5.8-9.8-6.9-11.8-1.1-1.9-7-11.8-13.1-22-18.1-30.3-42.6-71.3-44.4-74.5-1-1.7-7.9-13.4-15.5-26-7.6-12.7-14.5-24.4-15.5-26-.9-1.7-3.6-6-5.8-9.8-2.3-3.7-4.2-7.2-4.2-7.7 0-.6-.4-1-.8-1-.5 0-1.4-1.1-2-2.5C825 561 792 505 787.5 498c-1.2-1.9-11.6-19.3-23-38.5-11.4-19.3-33.4-56.2-48.8-82-48.6-81.5-53-89-54.1-91-.6-1.1-5.9-9.9-11.6-19.5-5.8-9.6-11.1-18.7-12-20.1-.8-1.5-5.3-9-10-16.8-4.7-7.8-9.3-15.6-10.4-17.4-1-1.8-8.8-14.9-17.4-29.2-8.5-14.3-16.3-27.4-17.2-29-1-1.7-4.9-8.3-8.9-14.9-3.9-6.5-7.1-12.3-7.1-12.7 0-.5-.4-.9-1-.9-.5 0-1-.4-1-.9s-7.4-13.2-16.4-28.3l-16.3-27.3 3.6-.6c4.2-.7 62.4-.3 66.1.4zm-96.2 7.2c-1.6 2.7-4.7 7.9-6.8 11.4-2.2 3.4-4 6.5-4 6.8 0 .3-1.3 2.5-3 5-1.6 2.4-3 4.6-3 4.9 0 .2-1.1 2.1-2.4 4.2-1.8 2.8-37.8 63.2-48.3 80.9-1 1.8-3.8 6.4-6.2 10.5-2.4 4-12.3 20.6-21.8 36.8-9.6 16.2-18.3 30.6-19.2 32-1 1.4-2.9 4.5-4.3 7-2.5 4.6-33.9 57.3-76.7 129-12.9 21.7-24.1 40.4-24.7 41.5-1.1 2.1-46.5 78.2-72.8 122.3-8.3 13.8-15.9 26.7-17 28.5-2.8 4.9-39.4 66.4-43.4 73l-3.6 5.9-2.8-7.4c-7.1-18.3-17.2-52.2-19.3-64.8-.3-1.9-1.1-5.5-1.6-8-1.6-6.9-2.1-9.5-3.4-19.5-.3-2.3-.8-5.2-1-6.5-.3-1.4-.8-5.4-1.1-9-.3-3.6-.7-7.6-.9-8.9-2.3-14.3-2.3-60.5 0-82.6.5-5.2 1.5-14.1 2.1-18.5.9-7.2 4.9-29.9 5.8-32.8.3-.9.7-2.8.9-4.2 2.8-16.3 16.6-58.2 26.3-79.7 19.4-43.2 39.6-74.8 73.4-114.8 6.8-8.1 36.9-37.3 47.5-46.1 29.3-24.5 58.3-43.3 92-59.8 16.6-8.2 42.7-18.7 58-23.5 5.5-1.7 12-3.8 14.5-4.6 6.2-2 32.5-8.3 38-9 2.4-.4 4.7-.8 5-1 .4-.2 2.9-.7 5.6-1 2.7-.4 5.6-.8 6.4-1 .8-.2 3.5-.7 6-1 2.5-.4 4.6-.8 4.7-.9.1-.1 1-.2 2-.2 1.7 0 1.6.5-.9 5.1zm417.6 698.7c-7 11.4-34.6 42-54.4 60.3-46.2 42.7-105.7 77.6-164 96.3-13.4 4.2-20.3 6.4-22 6.7-.8.2-7.2 1.7-14.3 3.4-7 1.7-14.2 3.3-16 3.6-14.8 2.7-26.1 4.5-31.2 5-3.3.4-6.7.8-7.5 1-.8.2-5.8.7-11 1-5.2.4-11.5.9-14 1.1-2.5.2-13.5.4-24.5.4-18.3 0-23.3-.2-39.5-1.5-8.3-.7-36.4-4.4-41.2-5.4-2.4-.5-6.3-1.3-8.8-1.6-2.4-.4-4.7-.8-5.1-1-.3-.2-2.1-.7-3.9-1-1.8-.3-7.7-1.7-12.9-3.1-67.4-17.5-124.6-46.8-178.6-91.5-19.8-16.3-52.4-50.8-69.8-73.7-.8-.9 71.3-1.2 359.2-1.2s360.1.3 359.5 1.2z"/></svg>